<svg xmlns="http://www.w3.org/2000/svg" width="100" height="100" viewBox="0 0 100 100">
  <g fill="none" fill-rule="evenodd">
    <path fill="#f4d00e" d="m0 0h100v100h-100z"/>
    <g fill-rule="nonzero" transform="translate(5 6)">
      <path fill="#fff" d="m20 32v54h-19v-54z"/>
      <path fill="#cf2620" d="m0 11c0-1.50981147.28757882-2.92973191.8627451-4.25980392.57516627-1.33007201 1.36600804-2.49836098 2.37254902-3.50490196s2.17482995-1.79738275 3.50490196-2.37254902c1.33007201-.57516628 2.74999245-.8627451 4.25980392-.8627451 1.5098115 0 2.9297319.28757882 4.2598039.8627451 1.330072.57516627 2.498361 1.36600804 3.504902 2.37254902s1.7973827 2.17482995 2.372549 3.50490196.8627451 2.74999245.8627451 4.25980392c0 1.5098115-.2875788 2.9297319-.8627451 4.2598039s-1.366008 2.498361-2.372549 3.504902-2.17483 1.7973827-3.504902 2.372549-2.7499924.8627451-4.2598039.8627451c-1.50981147 0-2.92973191-.2875788-4.25980392-.8627451s-2.49836098-1.366008-3.50490196-2.372549-1.79738275-2.17483-2.37254902-3.504902c-.57516628-1.330072-.8627451-2.7499924-.8627451-4.2598039z"/>
      <path fill="#fff" d="m25.5 58.2463158c0-4.00002.8089746-7.7368247 2.4269481-11.2105263 1.6179734-3.4737016 3.8690332-6.4912153 6.7532467-9.0526316 2.8842136-2.5614163 6.3135624-4.57894 10.2881494-6.0526316 3.9745869-1.4736916 8.3184288-2.2105263 13.0316558-2.2105263 4.6428804 0 8.9515494.7192911 12.9261364 2.1578947 3.9745869 1.4386037 7.4215222 3.4385837 10.3409091 6 2.9193868 2.5614164 5.188033 5.6140174 6.8060064 9.1578948 1.6179735 3.5438773 2.4269481 7.4561189 2.4269481 11.7368421 0 4.2807231-.826561 8.1929647-2.4797078 11.7368421s-3.9217929 6.5964784-6.8060065 9.1578947c-2.8842135 2.5614163-6.3487352 4.5438527-10.3936688 5.9473684-4.0449337 1.4035158-8.4239483 2.1052632-13.1371753 2.1052632-4.6428804 0-8.933963-.7017474-12.8733767-2.1052632-3.9394136-1.4035157-7.3335896-3.4034957-10.1826298-6-2.8490403-2.5965042-5.0825136-5.7017363-6.700487-9.3157894-1.6179735-3.6140532-2.4269481-7.6315569-2.4269481-12.0526316zm20 .8141097c0 1.8439809.3383157 3.5283612 1.0149573 5.0531915.6766415 1.5248303 1.566946 2.8546043 2.6709401 3.9893617 1.1039942 1.1347575 2.4216448 2.0212734 3.9529915 2.6595745s3.1517008.9574468 4.8611111.9574468 3.3297644-.3191457 4.8611111-.9574468 2.8489973-1.524817 3.9529915-2.6595745c1.1039941-1.1347574 1.9942986-2.4645314 2.6709401-3.9893617.6766416-1.5248303 1.0149573-3.17375 1.0149573-4.9468085 0-1.7021362-.3383157-3.3155952-1.0149573-4.8404255-.6766415-1.5248303-1.566946-2.8546043-2.6709401-3.9893617-1.1039942-1.1347575-2.4216448-2.0212734-3.9529915-2.6595745s-3.1517008-.9574468-4.8611111-.9574468-3.3297644.3191457-4.8611111.9574468-2.8489973 1.524817-3.9529915 2.6595745c-1.1039941 1.1347574-1.9942986 2.446801-2.6709401 3.9361702-.6766416 1.4893691-1.0149573 3.0850979-1.0149573 4.787234z"/>
    </g>
  </g>
</svg>
